<?xml version="1.0" encoding="UTF-8" standalone="no"?>
<svg
   xmlns:dc="http://purl.org/dc/elements/1.1/"
   xmlns:cc="http://creativecommons.org/ns#"
   xmlns:rdf="http://www.w3.org/1999/02/22-rdf-syntax-ns#"
   xmlns:svg="http://www.w3.org/2000/svg"
   xmlns="http://www.w3.org/2000/svg"
   xmlns:sodipodi="http://sodipodi.sourceforge.net/DTD/sodipodi-0.dtd"
   xmlns:inkscape="http://www.inkscape.org/namespaces/inkscape"
   version="1.0"
   width="1920px"
   height="1080px"
   viewBox="0 0 1920 1080"
   preserveAspectRatio="xMidYMid meet"
   id="svg18"
   sodipodi:docname="greencar.svg"
   inkscape:version="1.0.2-2 (e86c870879, 2021-01-15)">
  <metadata
     id="metadata24">
    <rdf:RDF>
      <cc:Work
         rdf:about="">
        <dc:format>image/svg+xml</dc:format>
        <dc:type
           rdf:resource="http://purl.org/dc/dcmitype/StillImage" />
        <dc:title></dc:title>
      </cc:Work>
    </rdf:RDF>
  </metadata>
  <defs
     id="defs22" />
  <sodipodi:namedview
     pagecolor="#ffffff"
     bordercolor="#666666"
     borderopacity="1"
     objecttolerance="10"
     gridtolerance="10"
     guidetolerance="10"
     inkscape:pageopacity="0"
     inkscape:pageshadow="2"
     inkscape:window-width="1788"
     inkscape:window-height="917"
     id="namedview20"
     showgrid="false"
     inkscape:zoom="0.28854167"
     inkscape:cx="-745.72848"
     inkscape:cy="286.20651"
     inkscape:window-x="0"
     inkscape:window-y="0"
     inkscape:window-maximized="0"
     inkscape:current-layer="svg18" />
  <g
     fill="#000000"
     id="g4"
     transform="matrix(-1,0,0,1,1924.5104,0)">
    <path
       d="m 401.3,874.2 c -5.1,-0.1 -9.3,-0.7 -9.3,-1.2 0,-0.6 -1.2,-1 -2.7,-1 -4.2,0 -19.6,-2.9 -20.2,-3.8 -0.4,-0.4 -4.1,-1.6 -8.3,-2.6 -4.3,-1.1 -7.8,-2.3 -7.8,-2.7 0,-0.4 -2.5,-1.5 -5.5,-2.4 -3,-1 -5.5,-2.1 -5.5,-2.5 0,-0.4 -2,-1.5 -4.5,-2.4 -2.5,-1 -4.5,-2.1 -4.5,-2.5 0,-0.4 -1.8,-1.5 -4,-2.5 -2.2,-1 -4,-2.1 -4,-2.4 0,-0.4 -1.7,-1.6 -3.7,-2.7 -4.8,-2.6 -5.6,-3.3 -20.6,-18.2 -14.9,-15 -15.6,-15.8 -18.2,-20.6 -1.1,-2 -2.3,-3.7 -2.7,-3.7 -0.3,0 -1.5,-1.8 -2.4,-4 -1.1,-2.4 -2.6,-4.2 -3.9,-4.5 -1.1,-0.2 -26.3,-0.6 -56,-0.9 -54,-0.6 -54,-0.6 -72,-4.9 -12.6,-3 -20,-5.3 -24.5,-7.8 -6,-3.1 -6.8,-4 -10.3,-10.7 -3.8,-7.3 -3.8,-7.3 -2.1,-73.5 1.7,-66.2 1.7,-66.2 5,-72.7 2.9,-5.7 16.3,-22.9 48.9,-62.6 8.1,-9.8 9.2,-10.8 53,-42.8 26.9,-19.7 47.6,-34.1 51.9,-36.2 7.1,-3.4 7.1,-3.4 203.1,-19.5 196,-16.2 196,-16.2 331.7,-107.6 74.7,-50.2 139.1,-92.9 143,-94.8 7.1,-3.4 8.9,-3.7 75.8,-13.6 68.5,-10 68.5,-10 198.5,-10.6 130,-0.6 130,-0.6 137,2.9 3.9,2 54.9,36.3 113.5,76.2 106.5,72.6 106.5,72.6 120.5,72.6 13.2,0 16.7,0.5 70,10 52.1,9.4 56.5,10.3 63.8,13.8 7.8,3.6 7.8,3.6 36,36 19.7,22.6 29.1,34.2 31.3,38.5 1.7,3.4 8.1,20.6 14.3,38.3 11.1,32.1 11.1,32.1 11.1,46.1 0,7.8 -0.7,28.2 -1.5,45.4 -1.6,31.2 -1.6,31.2 -6,39.8 -2.5,4.7 -10.5,17.6 -17.7,28.6 -13.3,20 -13.3,20 -88.8,63.8 -41.5,24.1 -79.4,45.8 -84.2,48.2 -8.8,4.5 -8.8,4.5 -19.8,4.5 -9.3,0 -11.2,0.3 -11.7,1.6 -0.9,2.3 -2.7,4.3 -17,18.7 -15,14.9 -15.8,15.6 -20.6,18.2 -2,1.1 -3.7,2.3 -3.7,2.7 0,0.3 -1.8,1.4 -4,2.4 -2.2,1 -4,2.1 -4,2.5 0,0.4 -2,1.5 -4.5,2.5 -2.5,0.9 -4.5,2 -4.5,2.4 0,0.4 -2.5,1.5 -5.5,2.5 -3,0.9 -5.5,2 -5.5,2.4 0,0.4 -3.5,1.6 -7.7,2.7 -4.3,1 -8,2.2 -8.4,2.6 -0.6,0.9 -16,3.8 -20.1,3.8 -1.4,0 -2.8,0.5 -3,1.1 -0.2,0.7 -7,1 -20.3,1 -13.3,0 -20.1,-0.3 -20.3,-1 -0.2,-0.6 -1.6,-1.1 -3,-1.1 -4.1,0 -19.5,-2.9 -20.1,-3.8 -0.4,-0.4 -4.1,-1.6 -8.3,-2.6 -4.3,-1.1 -7.8,-2.3 -7.8,-2.7 0,-0.4 -2.5,-1.5 -5.5,-2.4 -3,-1 -5.5,-2.1 -5.5,-2.5 0,-0.4 -2,-1.5 -4.5,-2.4 -2.5,-1 -4.5,-2.1 -4.5,-2.5 0,-0.4 -1.8,-1.5 -4,-2.5 -2.2,-1 -4,-2.1 -4,-2.4 0,-0.4 -1.7,-1.6 -3.7,-2.7 -4.8,-2.6 -5.6,-3.3 -20.6,-18.2 -14.2,-14.3 -16.7,-17 -16.7,-18.2 0,-0.5 -0.6,-1.4 -1.4,-2 -1,-0.9 -90.6,-1.7 -345.7,-3.1 -189.4,-1.1 -364.5,-2 -389.1,-2 -44.7,0 -44.7,0 -46.4,3.5 -0.9,1.9 -1.9,3.5 -2.3,3.5 -0.3,0 -1.5,1.7 -2.6,3.7 -2.6,4.8 -3.3,5.6 -18.2,20.6 -15,14.9 -15.8,15.6 -20.6,18.2 -2,1.1 -3.7,2.3 -3.7,2.7 0,0.3 -1.8,1.4 -4,2.4 -2.2,1 -4,2.1 -4,2.5 0,0.4 -2,1.5 -4.5,2.5 -2.5,0.9 -4.5,2 -4.5,2.4 0,0.4 -2.5,1.5 -5.5,2.5 -3,0.9 -5.5,2 -5.5,2.4 0,0.4 -3.5,1.6 -7.7,2.7 -4.3,1 -8,2.2 -8.4,2.6 -0.6,0.9 -16,3.8 -20.1,3.8 -1.4,0 -2.8,0.4 -3,0.9 -0.4,1 -18.2,1.7 -31.5,1.3 z"
       id="path2" />
  </g>
  <g
     fill="#8d8d8d"
     id="g12"
     transform="matrix(-1,0,0,1,1924.5104,0)">
    <path
       d="m 772.1,413.8 c 22.2,-15 71.7,-48.3 109.9,-74 38.2,-25.7 69.6,-46.4 69.7,-46 0.9,2.9 25.3,126.6 25,126.8 -0.2,0.3 -240.7,20.4 -243.6,20.4 -0.8,0 16.7,-12.2 39,-27.2 z"
       id="path6" />
    <path
       d="M 996.7,411.9 C 993.1,395.3 972,288.8 972,287.2 c 0,-1.5 7.7,-2.8 63.8,-11 63.7,-9.3 63.7,-9.3 182.4,-9.9 118.6,-0.6 118.6,-0.6 119.7,3.3 0.5,2.1 1.9,8.2 3.1,13.4 1.1,5.2 2.7,12.2 3.5,15.5 0.8,3.3 3,13.2 5,22 2,8.8 4.2,18.7 5,22 0.8,3.3 2.8,12.3 4.5,20 1.7,7.7 3.7,16.7 4.5,20 0.8,3.3 1.3,6 1.2,6.1 -0.1,0.1 -80.3,6.7 -178.2,14.8 -97.9,8.1 -180.3,15 -183.1,15.3 -5.1,0.5 -5.1,0.5 -6.7,-6.8 z"
       id="path8" />
    <path
       d="m 1384.6,381.8 c -0.7,-2.9 -2.8,-11.8 -4.5,-19.8 -1.7,-8 -3.8,-17.2 -4.6,-20.5 -0.7,-3.3 -2.1,-9.4 -3,-13.5 -0.9,-4.1 -2.5,-11.3 -3.6,-16 -5.6,-23.6 -7.2,-31.1 -6.8,-31.4 0.3,-0.2 141.7,95.9 154.4,104.9 1.7,1.2 -6.7,1.4 -64.2,1.4 -66.2,0.1 -66.2,0.1 -67.7,-5.1 z"
       id="path10" />
  </g>
  <g
     fill="#69be94"
     id="g16"
     transform="matrix(-1,0,0,1,1924.5104,0)">
    <path
       d="m 974.5,767.9 c -160,-0.9 -318.1,-1.8 -351.3,-1.8 -60.3,-0.1 -60.3,-0.1 -59.6,-2.3 0.4,-1.3 1,-2.5 1.4,-2.8 0.8,-0.6 4,-16.5 4,-20.2 0,-1.4 0.6,-2.8 1.2,-3 1.8,-0.6 1.8,-44 0,-44.6 -0.6,-0.2 -1.2,-1.5 -1.2,-2.9 0,-4 -3.3,-20.3 -4.1,-20.3 -0.4,0 -1.5,-3.1 -2.4,-7 -0.9,-3.8 -2,-7 -2.4,-7 -0.4,0 -1.5,-2.5 -2.6,-5.5 -1,-3 -2.2,-5.5 -2.6,-5.5 -0.4,0 -1.5,-2.2 -2.5,-5 -1,-2.7 -2.2,-5 -2.6,-5 -0.4,0 -1.4,-1.6 -2.2,-3.5 -0.8,-1.9 -1.9,-3.5 -2.4,-3.5 -0.4,0 -1.4,-1.6 -2.2,-3.5 -0.8,-1.9 -2.4,-4.2 -3.7,-5 -1.3,-0.9 -2.3,-2.2 -2.3,-3 0,-0.8 -0.8,-1.9 -1.8,-2.4 -1,-0.5 -2.4,-2.2 -3.2,-3.7 -1.9,-3.4 -11,-12.5 -14.4,-14.4 -1.5,-0.8 -3.2,-2.2 -3.7,-3.2 -0.5,-1 -1.6,-1.8 -2.4,-1.8 -0.8,0 -2.1,-1 -3,-2.3 -0.8,-1.3 -3.1,-2.9 -5,-3.7 -1.9,-0.8 -3.5,-1.8 -3.5,-2.2 0,-0.5 -1.6,-1.6 -3.5,-2.4 -1.9,-0.8 -3.5,-1.8 -3.5,-2.2 0,-0.4 -2.2,-1.6 -5,-2.6 -2.7,-1 -5,-2.1 -5,-2.5 0,-0.4 -2.5,-1.6 -5.5,-2.6 -3,-1.1 -5.5,-2.2 -5.5,-2.6 0,-0.4 -3.1,-1.5 -7,-2.4 -3.8,-0.9 -7,-2 -7,-2.4 0,-0.9 -16.4,-4.1 -20.8,-4.1 -1.6,0 -3.2,-0.6 -3.4,-1.2 -0.4,-1 -5.5,-1.3 -21.3,-1.3 -15.8,0 -20.9,0.3 -21.2,1.3 -0.3,0.6 -1.9,1.2 -3.5,1.2 -4.4,0 -20.8,3.2 -20.8,4.1 0,0.4 -3.1,1.5 -7,2.4 -3.8,0.9 -7,2 -7,2.4 0,0.4 -2.5,1.5 -5.5,2.6 -3,1 -5.5,2.2 -5.5,2.6 0,0.4 -2.2,1.5 -5,2.5 -2.7,1 -5,2.2 -5,2.6 0,0.4 -1.6,1.4 -3.5,2.2 -1.9,0.8 -3.5,1.9 -3.5,2.4 0,0.4 -1.6,1.4 -3.5,2.2 -1.9,0.8 -4.2,2.4 -5,3.7 -0.9,1.3 -2.2,2.3 -3,2.3 -0.8,0 -1.9,0.8 -2.4,1.8 -0.5,1 -2.2,2.4 -3.7,3.2 -3.4,1.9 -12.5,11 -14.4,14.4 -0.8,1.5 -2.2,3.2 -3.2,3.7 -1,0.5 -1.8,1.6 -1.8,2.4 0,0.8 -1,2.1 -2.3,3 -1.3,0.8 -2.9,3.1 -3.7,5 -0.8,1.9 -1.8,3.5 -2.2,3.5 -0.5,0 -1.6,1.6 -2.4,3.5 -0.8,1.9 -1.8,3.5 -2.2,3.5 -0.4,0 -1.6,2.3 -2.6,5 -1,2.8 -2.1,5 -2.5,5 -0.4,0 -1.6,2.5 -2.6,5.5 -1.1,3 -2.2,5.5 -2.6,5.5 -0.4,0 -1.5,3.2 -2.4,7 -0.9,3.9 -2,7 -2.4,7 -0.8,0 -4.1,16.3 -4.1,20.3 0,1.4 -0.6,2.7 -1.2,2.9 -1.8,0.6 -1.8,44 0,44.6 0.6,0.2 1.2,1.5 1.2,2.9 0,4.3 3.3,20.3 4.2,20.3 0.4,0 0.8,0.7 0.8,1.7 0,1.5 -3.5,1.6 -43.4,1 -43.3,-0.5 -43.3,-0.5 -62,-4.8 -18.7,-4.3 -18.7,-4.3 -18.2,-11.9 0.3,-4.1 1.1,-30 1.7,-57.5 1.2,-50 1.2,-50 13.7,-65.5 44.3,-54.9 34.5,-45.4 84.2,-81.8 24.5,-17.9 45.4,-32.7 46.5,-32.9 1.1,-0.2 251.3,-21.1 556,-46.4 554,-46.1 554,-46.1 655.2,-45.4 101.1,0.6 101.1,0.6 158.4,10.9 48.9,8.9 57.4,10.7 58.8,12.4 0.9,1.1 13.1,15.1 27.1,31.2 25.5,29.2 25.5,29.2 36.8,61.3 11.3,32.2 11.3,32.2 10.3,59.7 -2,50.2 -0.3,42.9 -16.2,67.2 -13.9,21.1 -13.9,21.1 -87.1,63.6 -40.3,23.3 -73.8,42.6 -74.5,42.9 -1.3,0.5 1.3,-10.8 2.6,-11.7 0.9,-0.6 4.1,-16.4 4.1,-20.2 0,-1.4 0.6,-2.8 1.2,-3 1,-0.4 1.3,-5.8 1.3,-22.3 0,-16.5 -0.3,-21.9 -1.3,-22.3 -0.6,-0.2 -1.2,-1.5 -1.2,-2.9 0,-4 -3.3,-20.3 -4.1,-20.3 -0.4,0 -1.5,-3.1 -2.4,-7 -0.9,-3.8 -2,-7 -2.4,-7 -0.4,0 -1.5,-2.5 -2.6,-5.5 -1,-3 -2.2,-5.5 -2.6,-5.5 -0.4,0 -1.5,-2.2 -2.5,-5 -1,-2.7 -2.2,-5 -2.6,-5 -0.4,0 -1.4,-1.6 -2.2,-3.5 -0.8,-1.9 -1.9,-3.5 -2.4,-3.5 -0.4,0 -1.4,-1.6 -2.2,-3.5 -0.8,-1.9 -2.4,-4.2 -3.7,-5 -1.3,-0.9 -2.3,-2.2 -2.3,-3 0,-0.8 -0.8,-1.9 -1.8,-2.4 -1,-0.5 -2.4,-2.2 -3.2,-3.7 -1.9,-3.4 -11,-12.5 -14.4,-14.4 -1.5,-0.8 -3.2,-2.2 -3.7,-3.2 -0.5,-1 -1.6,-1.8 -2.4,-1.8 -0.8,0 -2.1,-1 -3,-2.3 -0.8,-1.3 -3.1,-2.9 -5,-3.7 -1.9,-0.8 -3.5,-1.8 -3.5,-2.2 0,-0.5 -1.6,-1.6 -3.5,-2.4 -1.9,-0.8 -3.5,-1.8 -3.5,-2.2 0,-0.4 -2.2,-1.6 -5,-2.6 -2.7,-1 -5,-2.1 -5,-2.5 0,-0.4 -2.5,-1.6 -5.5,-2.6 -3,-1.1 -5.5,-2.2 -5.5,-2.6 0,-0.4 -3.1,-1.5 -7,-2.4 -3.8,-0.9 -7,-2 -7,-2.4 0,-0.9 -16.4,-4.1 -20.8,-4.1 -1.6,0 -3.2,-0.6 -3.4,-1.2 -0.4,-1 -5.5,-1.3 -21.3,-1.3 -15.8,0 -20.9,0.3 -21.2,1.3 -0.3,0.6 -1.9,1.2 -3.5,1.2 -4.4,0 -20.8,3.2 -20.8,4.1 0,0.4 -3.1,1.5 -7,2.4 -3.8,0.9 -7,2 -7,2.4 0,0.4 -2.5,1.5 -5.5,2.6 -3,1 -5.5,2.2 -5.5,2.6 0,0.4 -2.2,1.5 -5,2.5 -2.7,1 -5,2.2 -5,2.6 0,0.4 -1.6,1.4 -3.5,2.2 -1.9,0.8 -3.5,1.9 -3.5,2.4 0,0.4 -1.6,1.4 -3.5,2.2 -1.9,0.8 -4.2,2.4 -5,3.7 -0.9,1.3 -2.2,2.3 -3,2.3 -0.8,0 -1.9,0.8 -2.4,1.8 -0.5,1 -2.2,2.4 -3.7,3.2 -3.4,1.9 -12.5,11 -14.4,14.4 -0.8,1.5 -2.2,3.2 -3.2,3.7 -1,0.5 -1.8,1.6 -1.8,2.4 0,0.8 -1,2.1 -2.3,3 -1.3,0.8 -2.9,3.1 -3.7,5 -0.8,1.9 -1.8,3.5 -2.2,3.5 -0.5,0 -1.6,1.6 -2.4,3.5 -0.8,1.9 -1.8,3.5 -2.2,3.5 -0.4,0 -1.6,2.3 -2.6,5 -1,2.8 -2.1,5 -2.5,5 -0.4,0 -1.6,2.5 -2.6,5.5 -1.1,3 -2.2,5.5 -2.6,5.5 -0.4,0 -1.5,3.2 -2.4,7 -0.9,3.9 -2,7 -2.4,7 -0.8,0 -4.1,16.3 -4.1,20.3 0,1.4 -0.6,2.7 -1.2,2.9 -1,0.4 -1.3,5.8 -1.3,22.3 0,16.5 0.3,21.9 1.3,22.3 0.6,0.2 1.2,1.6 1.2,3 0,3.8 3.2,19.6 4.1,20.2 0.4,0.3 1.5,3.4 2.4,7 0.9,3.6 2.2,6.8 2.8,7.2 0.7,0.4 -9.4,0.7 -22.3,0.6 -12.9,0 -154.4,-0.9 -314.5,-1.9 z"
       id="path14" />
  </g>
</svg>
